<svg xmlns="http://www.w3.org/2000/svg" width="138.567" height="138.622" viewBox="0 0 138.567 138.622">
  <g id="Grupo_2" data-name="Grupo 2" transform="translate(1122 -49.802)">
    <g id="balloons" transform="translate(-1122 49.802)">
      <path id="Caminho_1" data-name="Caminho 1" d="M46.176-674.2c-.217.054-1.327.244-2.437.406a29.614,29.614,0,0,0-8.612,2.979c-2.681,1.462-3.033,1.787-3.033,2.9,0,.948.975,2.248,1.679,2.248a27.229,27.229,0,0,0,3.521-1.6,22.4,22.4,0,0,1,11.591-2.817,24.927,24.927,0,0,1,17.36,6.825l1.462,1.327-.487.785a39.878,39.878,0,0,0-3.846,8.883,31.491,31.491,0,0,0-.84,5.119l-.19,2.492-1.652.46a31.011,31.011,0,0,0-7.718,3.819l-1.76,1.192-1.76-1.625a31.04,31.04,0,0,0-12.837-7.041c-1.95-.542-2.871-.623-7.448-.623H23.942l.162-1.083a31.452,31.452,0,0,1,3.142-8.287,13.986,13.986,0,0,0,1.327-2.789c0-.758-1.246-1.787-2.167-1.787-1.192,0-1.95.948-3.683,4.469-1.408,2.871-2.817,7.421-2.817,9.1,0,1.029-.46,2.14-.894,2.14-.65,0-4.306,1.9-6.283,3.277a36.445,36.445,0,0,0-7.583,7.691c-6.5,9.858-6.635,20.583-.379,33.149,6.689,13.433,17.685,23.7,26.893,25.078l1.165.19L31.8-574.377c-1.165,3.25-1.3,4.685-.6,6.121a4.48,4.48,0,0,0,5.308,2.167l.975-.433.271,1.408c.162.785,1.408,7.2,2.735,14.272,1.354,7.068,2.6,13.27,2.735,13.758a1.926,1.926,0,0,0,3.764-.6c0-.487-1.219-7.231-2.708-15s-2.708-14.218-2.708-14.327c0-.135.46-.244,1.029-.244a4.5,4.5,0,0,0,3.981-6.175,26.325,26.325,0,0,0-2.519-3.331l-2.058-2.329.65-.433a25.679,25.679,0,0,0,5.633-4.956c1.787-2.139,1.815-2.167,2.221-1.544.217.352,1.137,1.544,2.058,2.681a28.512,28.512,0,0,0,10.075,8.179c1,.46,1.869.894,1.923.921a7.786,7.786,0,0,1-.867,1.652c-2,3.331-2.41,4.414-2.3,5.9a4.051,4.051,0,0,0,2.546,3.656,3.326,3.326,0,0,0,2.3.433l1.056-.162v12.241c0,7.773.108,12.647.3,13.3a1.7,1.7,0,0,0,.975,1.3,2.237,2.237,0,0,0,2.519-.569c.162-.325.271-5.389.271-13.406v-12.891l1.219.162a3.446,3.446,0,0,0,2.437-.406,4.068,4.068,0,0,0,2.519-3.656c.108-1.49-.3-2.573-2.3-5.9a7.632,7.632,0,0,1-.867-1.679c.054-.027.921-.433,1.9-.894a29.353,29.353,0,0,0,10.806-9.1l1.76-2.356,1.056,1.3A28.266,28.266,0,0,0,95.3-580.2a7.224,7.224,0,0,1,1.517,1.165,23.027,23.027,0,0,1-1.652,2.058c-.921,1.029-1.95,2.356-2.329,2.9a4.46,4.46,0,0,0,3.412,6.8c.6.027,1.11.135,1.11.271,0,.108-1.219,6.554-2.708,14.3-1.49,7.773-2.708,14.516-2.708,15a1.649,1.649,0,0,0,.7,1.462,1.783,1.783,0,0,0,3.06-.84c.135-.487,1.435-7.041,2.871-14.57s2.681-13.92,2.735-14.245c.135-.542.19-.542,1.3-.19a4.607,4.607,0,0,0,5.85-4.171,21.77,21.77,0,0,0-1.083-3.846c-.6-1.706-1.029-3.141-1-3.141.027-.027.894-.271,1.95-.515,4.333-1.083,8.341-3.331,12.891-7.339,3.412-3.006,3.846-3.9,2.41-5.335-1.165-1.138-1.787-.894-4.685,1.842-7.529,7.068-14.841,8.964-20.772,5.389a26.018,26.018,0,0,1-5.931-5.9l-.894-1.327L93-593.931c5.444-11.429,7.068-22.668,4.442-30.982a32.011,32.011,0,0,0-4.794-9.181l-1.76-2.275,1.544-1.462a24.751,24.751,0,0,1,10.237-5.8c2.194-.677,2.789-.758,6.744-.731,3.6,0,4.685.081,6.5.6a25.2,25.2,0,0,1,18.01,30.251,50.946,50.946,0,0,1-6.094,14c-1.6,2.546-1.625,3.629-.081,4.414,1.381.7,2.058.19,3.954-2.952,7.664-12.756,9.046-23.832,4.252-33.853a30.713,30.713,0,0,0-13.568-13.812l-1.381-.7-.162-1.842a29.2,29.2,0,0,0-7.908-16.845,29.1,29.1,0,0,0-32.77-6.771,35.189,35.189,0,0,0-8.341,5.389l-1.544,1.408-1.652-1.517A28.934,28.934,0,0,0,53.3-673.932,31.988,31.988,0,0,0,46.176-674.2Zm50.834,4.577a25.513,25.513,0,0,1,14.6,9.154,28.065,28.065,0,0,1,5.064,11.672c.135.894.081,1-.3.894-3.277-.975-10.7-.894-14.408.19A29.924,29.924,0,0,0,89.1-640.458l-1.354,1.273-2.167-1.462a30.234,30.234,0,0,0-8.748-3.927,31.259,31.259,0,0,0-8.8-.894l-1.571.162.162-1.706a24.819,24.819,0,0,1,7.746-16.114,21.6,21.6,0,0,1,6.825-4.712A24.97,24.97,0,0,1,97.01-669.626ZM36.02-643.546a25.343,25.343,0,0,1,10.589,5.823l1.462,1.381L47.016-635.1c-6.8,8.206-8.45,17.9-5.173,30.251a55.854,55.854,0,0,0,4.117,11l1.652,3.439-1.408,1.9c-3.223,4.333-6.906,6.743-10.752,6.987-4.9.325-10.02-2.031-15.518-7.123-6.906-6.391-13.135-16.9-15.085-25.43A30.392,30.392,0,0,1,4.822-624.7a24.97,24.97,0,0,1,19.445-19.174A36.482,36.482,0,0,1,36.02-643.546Zm38.538,2.681a24.285,24.285,0,0,1,12.052,6.31,24.1,24.1,0,0,1,5.606,7.637c1.815,3.819,2.275,5.931,2.275,10.806.027,5.525-.894,9.858-3.358,16.2-5.66,14.516-15.193,23.48-23.48,22.072a19.506,19.506,0,0,1-7.935-3.954c-6.31-5.2-12.4-16.493-14.652-27.136-.921-4.225-.921-10.427-.027-13.487a25.446,25.446,0,0,1,6.744-11.645,24.286,24.286,0,0,1,11.483-6.554A28.8,28.8,0,0,1,74.559-640.865ZM39.731-575.434c3.575,4.089,3.764,4.469,1.706,3.629a4.57,4.57,0,0,0-4.36.271A6.671,6.671,0,0,0,35.8-570.45a.779.779,0,0,1-.623.379c-.542,0-.46-.325,1.679-6.175.244-.623.569-1.138.785-1.138A10.278,10.278,0,0,1,39.731-575.434Zm63.4,1.706c1.273,3.737,1.273,4.414-.054,3.006a4.769,4.769,0,0,0-5.444-1.083c-1.977.813-1.815.406,1.354-3.25a10.412,10.412,0,0,1,2.464-2.329C101.722-577.384,102.237-576.3,103.131-573.727ZM71.607-570.64c1.6,2.817,2.167,4.089,1.842,4.089a4.981,4.981,0,0,1-1.165-.677,4.8,4.8,0,0,0-5.633,0c-1.219.813-1.354.84-1.165.108.325-1.219,3.548-6.473,3.981-6.473C69.738-573.592,70.523-572.482,71.607-570.64Z" transform="translate(-0.172 674.307)" fill="#103464"/>
      <path id="Caminho_2" data-name="Caminho 2" d="M351.239-484.337a5.71,5.71,0,0,0-2.979,3.277,6.31,6.31,0,0,0,.108,4.6c1.733,5.579,8.233,10.183,12.7,8.991,3.331-.921,4.794-4.685,3.358-8.748C362.343-482.089,355.464-486.341,351.239-484.337Zm4.387,4.117c2.789,1.246,5.227,4.577,5.227,7.1,0,1.165-.081,1.354-.7,1.571-3.25,1.246-9.7-5.741-7.854-8.531C352.837-480.925,354-480.979,355.626-480.221Z" transform="translate(-276.391 523.792)" fill="#103464"/>
      <path id="Caminho_3" data-name="Caminho 3" d="M548.775-496.152c-4.414,2.329-4.2,8.071.487,13.027,4.55,4.794,10.346,5.281,12.647,1.056,2.356-4.333-.975-11-6.879-13.785A7.412,7.412,0,0,0,548.775-496.152Zm4.55,4.062a9.459,9.459,0,0,1,5.173,6.662c.19,1.652-.244,2.085-1.869,1.95-2.573-.244-5.769-3.2-6.635-6.066C549.181-492.307,550.563-493.363,553.325-492.09Z" transform="translate(-433.467 533.224)" fill="#103464"/>
    </g>
  </g>
</svg>
