<svg id="insta" xmlns="http://www.w3.org/2000/svg" width="38.608" height="46" viewBox="0 0 38.608 46">
  <g id="instagram">
    <path id="Caminho_10" data-name="Caminho 10" d="M8.37-562.727a12.616,12.616,0,0,0-2.488,1.1,8.221,8.221,0,0,0-2.73,2.373A9.656,9.656,0,0,0,1.161-556C0-553.129,0-553.129,0-540.007s0,13.121,1.161,16a9.656,9.656,0,0,0,1.991,3.253,8.222,8.222,0,0,0,2.73,2.373C8.295-517,8.295-517,19.3-517s11.009,0,13.422-1.384a8.222,8.222,0,0,0,2.73-2.373,9.656,9.656,0,0,0,1.991-3.253c1.161-2.876,1.161-2.876,1.161-16s0-13.121-1.161-16a9.656,9.656,0,0,0-1.991-3.253,8.221,8.221,0,0,0-2.73-2.373c-2.413-1.384-2.4-1.384-13.528-1.366C11.205-563,9.23-562.943,8.37-562.727Zm21.355,2.66c3.152.809,5.731,3.882,6.41,7.639.3,1.743.3,23.1,0,24.841-.679,3.757-3.258,6.83-6.41,7.639-1.463.359-19.38.359-20.842,0-3.152-.809-5.731-3.883-6.41-7.639-.3-1.744-.3-23.1,0-24.841.664-3.721,3.242-6.83,6.334-7.621C10.18-560.408,28.323-560.408,29.725-560.067Z" transform="translate(0 563)"/>
    <path id="Caminho_11" data-name="Caminho 11" d="M400.784-492.207a3.8,3.8,0,0,0-2.217,3.4,3.166,3.166,0,0,0,.362,1.905,2.948,2.948,0,0,0,2.82,2.049,3.178,3.178,0,0,0,1.387-.288,4.187,4.187,0,0,0,1.7-4.314,3.64,3.64,0,0,0-2.141-2.75A2.011,2.011,0,0,0,400.784-492.207Zm1.749,3.128a1.1,1.1,0,0,1-.332,1.384c-.694.557-1.629-.4-1.282-1.294A.837.837,0,0,1,402.533-489.08Z" transform="translate(-371.225 498.214)"/>
    <path id="Caminho_12" data-name="Caminho 12" d="M137.194-434.8c-3.8,1.06-6.666,4.152-7.888,8.5a11.077,11.077,0,0,0-.392,3.829,11.078,11.078,0,0,0,.392,3.829,12.024,12.024,0,0,0,6.862,8.178,6.716,6.716,0,0,0,3.212.467,6.716,6.716,0,0,0,3.212-.467,12.024,12.024,0,0,0,6.862-8.178,11.077,11.077,0,0,0,.392-3.829,11.077,11.077,0,0,0-.392-3.829,11.988,11.988,0,0,0-6.862-8.16A10.682,10.682,0,0,0,137.194-434.8Zm3.876,2.642c3.062.755,5.806,4.026,6.44,7.675,1.056,6.039-2.956,11.9-8.129,11.9-4.494,0-8.295-4.53-8.295-9.886,0-4.44,2.745-8.574,6.379-9.634A8.128,8.128,0,0,1,141.07-432.162Z" transform="translate(-120.077 445.467)"/>
  </g>
</svg>
