<svg id="zap" xmlns="http://www.w3.org/2000/svg" width="50.608" height="51.919" viewBox="0 0 50.608 51.919">
  <g id="whatsapp" transform="translate(0 0)">
    <path id="Caminho_13" data-name="Caminho 13" d="M35.454-355.759a25.669,25.669,0,0,0-22.107,23.007,32.469,32.469,0,0,0,.223,6.824,26.452,26.452,0,0,0,2.412,7.452l.595,1.213L14.8-310.643c-.977,3.65-1.763,6.64-1.742,6.651s3-.769,6.618-1.744c5.269-1.419,6.64-1.755,6.852-1.668.149.054.839.368,1.54.693a25.192,25.192,0,0,0,7.181,2.091,29.844,29.844,0,0,0,6.523,0,25.05,25.05,0,0,0,14.5-7.322A24.022,24.022,0,0,0,61-318.562a27.691,27.691,0,0,0,2.465-7.626,39.336,39.336,0,0,0,0-7.907,25.881,25.881,0,0,0-2.369-7.528A25.34,25.34,0,0,0,43.761-355.38,28.073,28.073,0,0,0,35.454-355.759Zm6.64,4.484a20.516,20.516,0,0,1,8.074,3.315,21.474,21.474,0,0,1,8.647,12.435,22.653,22.653,0,0,1-.191,11.406,21.439,21.439,0,0,1-10.889,13.139,19.583,19.583,0,0,1-9.253,2.177,20.689,20.689,0,0,1-10.9-3.044l-.595-.347-3.909,1.051c-2.146.574-3.931,1.029-3.941,1.007s.414-1.733.977-3.813,1.02-3.856,1.02-3.943a5.26,5.26,0,0,0-.606-1.2,21.717,21.717,0,0,1,3.134-26.214A21.1,21.1,0,0,1,36.2-351.48,28.353,28.353,0,0,1,42.094-351.274Z" transform="translate(-13.059 355.911)"/>
    <path id="Caminho_14" data-name="Caminho 14" d="M101.21-263.88a7.15,7.15,0,0,0-2.2,2.6,7.994,7.994,0,0,0,.053,6.565,29.736,29.736,0,0,0,7.266,9.253,20.821,20.821,0,0,0,6.5,3.909c2.666,1.041,3.176,1.158,4.94,1.158a4.955,4.955,0,0,0,2.252-.266,7.168,7.168,0,0,0,2.645-1.679,2.754,2.754,0,0,0,.945-1.434,6.763,6.763,0,0,0,.276-2.539c-.053-.234-.361-.425-1.87-1.179-2.762-1.381-3.878-1.859-4.345-1.859-.393,0-.457.042-.924.659a12.061,12.061,0,0,1-2.316,2.571c-.308.074-.914-.149-2.305-.85a16.2,16.2,0,0,1-5.684-4.674,9.771,9.771,0,0,1-1.636-2.656,6.351,6.351,0,0,1,.892-1.381c.956-1.243,1.232-1.71,1.232-2.061a8.428,8.428,0,0,0-.457-1.307c-.255-.595-.765-1.827-1.137-2.73a7.963,7.963,0,0,0-1.02-2l-.34-.34h-1.147A3.173,3.173,0,0,0,101.21-263.88Z" transform="translate(-85.71 278.201)"/>
  </g>
</svg>
